<svg version="1.1" id="Calque_1" x="0px" y="0px" viewBox="0 0 36.8 34" style="enable-background:new 0 0 36.8 34;">

  <ellipse style="fill: rgb(63, 109, 170);" cx="18.451" cy="17.055" rx="18.291" ry="16.941"/>
  <style type="text/css">.st0 { fill: rgb(235, 188, 102); }</style>
  <path class="st0" d="M456.7,306.9c2.2,0,3.9-0.4,5-1.1c1.1-0.7,1.9-1.7,2.3-2.7c0.4-1.1,0.6-1.7,0.7-4.2c0.1-2.8,0.7-3.9,1.9-5.3
	c1.1-1.4,3-2,5.6-2v2.9c-0.9,0.1-1.6,0.4-1.9,1.1c-0.3,0.7-0.5,1.4-0.5,3.5c0,3.1-0.3,4.3-1,6c-0.7,1.7-2,3.1-4,4.1
	c-2,1.1-4.7,1.6-8.2,1.7l0,6c0,1.9,0.1,3.1,0.3,3.7c0.2,0.6,0.7,1,1.4,1.4s1.8,0.5,3.3,0.5l0,2.6H447l0-2.6c1.4,0,2.5-0.2,3.2-0.5
	c0.7-0.3,1.2-0.7,1.4-1.3c0.2-0.6,0.4-1.8,0.4-3.8l0-6c-3.5-0.1-6.2-0.6-8.2-1.7c-1.9-1-3.3-2.4-3.9-4.1c-0.7-1.7-1-2.9-1-6.1
	c0-2.1-0.2-2.7-0.5-3.4c-0.3-0.7-1-1.1-1.9-1.2v-2.9c1.6,0,3,0.3,4,0.8c1,0.5,1.8,1.4,2.4,2.6c0.6,1.2,1,2,1,4
	c0.1,2.5,0.4,3.1,0.7,4.1s1.1,2,2.3,2.7c1.2,0.8,2.9,1.1,5.1,1.1l0-7.5c0-1.9-0.1-3.1-0.3-3.7c-0.2-0.6-0.7-1-1.4-1.3
	c-0.7-0.3-1.8-0.5-3.3-0.5v-2.3h14.7v2.3c-1.5,0-2.6,0.2-3.3,0.5c-0.7,0.3-1.2,0.8-1.4,1.3c-0.2,0.6-0.3,1.8-0.3,3.7L456.7,306.9z"></path>
  <path id="XMLID_2_" class="st0" d="M20.8,15.6c2.2,0,3.9-0.4,5-1.1c1.1-0.7,1.9-1.7,2.3-2.7c0.4-1.1,0.6-1.7,0.7-4.2
	c0.1-2.8,0.7-3.9,1.9-5.3c1.1-1.4,3-2,5.6-2v2.9c-0.9,0.1-1.6,0.4-1.9,1.1c-0.3,0.7-0.5,1.4-0.5,3.5c0,3.1-0.3,4.3-1,6
	c-0.7,1.7-2,3.1-4,4.1c-2,1.1-4.7,1.6-8.2,1.7l0,6c0,1.9,0.1,3.1,0.3,3.7c0.2,0.6,0.7,1,1.4,1.4s1.8,0.5,3.3,0.5l0,2.6H11.1l0-2.6
	c1.4,0,2.5-0.2,3.2-0.5c0.7-0.3,1.2-0.7,1.4-1.3c0.2-0.6,0.4-1.8,0.4-3.8l0-6c-3.5-0.1-6.2-0.6-8.2-1.7c-1.9-1-3.3-2.4-3.9-4.1
	c-0.7-1.7-1-2.9-1-6.1c0-2.1-0.2-2.7-0.5-3.4c-0.3-0.7-1-1.1-1.9-1.2V0.3c1.6,0,3,0.3,4,0.8c1,0.5,1.8,1.4,2.4,2.6c0.6,1.2,1,2,1,4
	c0.1,2.5,0.4,3.1,0.7,4.1s1.1,2,2.3,2.7c1.2,0.8,2.9,1.1,5.1,1.1l0-7.5c0-1.9-0.1-3.1-0.3-3.7c-0.2-0.6-0.7-1-1.4-1.3
	c-0.7-0.3-1.8-0.5-3.3-0.5V0.3h14.7v2.3c-1.5,0-2.6,0.2-3.3,0.5c-0.7,0.3-1.2,0.8-1.4,1.3c-0.2,0.6-0.3,1.8-0.3,3.7L20.8,15.6z">
	</path>
	

  <text style="fill: rgb(63, 109, 170); font-family: Arial, sans-serif; font-size: 2.1px; white-space: pre; transform-origin: 12.9747px 27.2707px;" transform="matrix(1.588459014893, 0, 0, 1.769119977951, 6.919559373862, 9.049781538297)" x="9.663" y="25.446">saRa</text>	
  
</svg>
